<svg width="1240" height="250" viewBox="0 0 1240 250" fill="none" xmlns="http://www.w3.org/2000/svg">
<rect width="1240" height="250" fill="#22272E"/>
<path d="M282 118.218H288.267C296.551 118.218 303.267 111.502 303.267 103.218V93.091C303.267 88.553 306.945 84.8743 311.483 84.8743V84.8743C316.021 84.8743 319.7 88.553 319.7 93.091V152.768C319.7 157.172 323.271 160.743 327.675 160.743V160.743C332.079 160.743 335.65 157.172 335.65 152.768V58.2976C335.65 54.0266 339.112 50.5642 343.383 50.5642V50.5642C347.654 50.5642 351.117 54.0266 351.117 58.2976V203.025C351.117 207.429 354.687 211 359.092 211V211C363.496 211 367.067 207.429 367.067 203.025V45.975C367.067 41.5705 370.637 38 375.042 38V38C379.446 38 383.017 41.5705 383.017 45.975V166.057C383.017 170.328 386.479 173.791 390.75 173.791V173.791C395.021 173.791 398.483 170.328 398.483 166.057V46.2167C398.483 41.6787 402.162 38 406.7 38V38C411.238 38 414.917 41.6787 414.917 46.2167V159.533C414.917 163.938 418.487 167.508 422.892 167.508V167.508C427.296 167.508 430.867 163.938 430.867 159.533V56.8479C430.867 52.5769 434.329 49.1145 438.6 49.1145V49.1145C442.871 49.1145 446.333 52.5769 446.333 56.8479V135.613C446.333 140.151 450.012 143.83 454.55 143.83V143.83C459.088 143.83 462.767 140.151 462.767 135.613V78.1104C462.767 73.8394 466.229 70.3771 470.5 70.3771V70.3771C474.771 70.3771 478.233 73.8394 478.233 78.1104V115.559C478.233 119.963 481.804 123.534 486.208 123.534V123.534C490.613 123.534 494.183 119.963 494.183 115.559V113.144V113.144C494.183 107.406 498.835 102.754 504.573 102.754H514" stroke="url(#paint0_linear_2_20)" stroke-width="6" stroke-linejoin="round"/>
<g filter="url(#filter0_i_2_20)">
<path d="M562.117 151.172C562.469 148.633 563.211 145.137 564.344 140.684C565.516 136.191 567 131.406 568.797 126.328C572.898 114.688 577.762 104.316 583.387 95.2148C584.168 93.9648 585.164 93.2422 586.375 93.0469C588.094 92.8125 589.598 92.6953 590.887 92.6953C592.215 92.6953 593.387 92.8516 594.402 93.1641C595.457 93.4375 596.277 93.8086 596.863 94.2773C598.035 95.2539 598.23 96.2891 597.449 97.3828C590.379 108.047 584.207 121.055 578.934 136.406C576.941 142.266 575.75 146.348 575.359 148.652C574.969 150.918 574.676 152.48 574.48 153.34C574.324 154.16 574.246 154.883 574.246 155.508C574.246 156.797 575.066 157.441 576.707 157.441C578.348 157.441 580.184 157.07 582.215 156.328C584.246 155.547 586.434 154.473 588.777 153.105C591.121 151.699 593.543 150 596.043 148.008C598.582 146.016 601.062 143.789 603.484 141.328C605.906 138.828 608.191 136.133 610.34 133.242C612.488 130.352 614.363 127.305 615.965 124.102C619.52 117.07 621.297 110.137 621.297 103.301C621.297 93.9258 617.488 87.6953 609.871 84.6094C607.215 83.5547 604.441 83.0273 601.551 83.0273C598.699 83.0273 596.277 83.2227 594.285 83.6133C592.293 83.9648 590.379 84.4727 588.543 85.1367C584.832 86.4648 581.707 88.2422 579.168 90.4688C578.504 90.8594 577.703 91.0547 576.766 91.0547C575.828 91.0547 574.812 90.7812 573.719 90.2344C572.664 89.6875 571.707 89.0039 570.848 88.1836C568.895 86.2695 568.113 84.4336 568.504 82.6758C568.934 80.1758 572.684 78.0078 579.754 76.1719C585.691 74.6484 591.668 73.8867 597.684 73.8867C603.699 73.8867 609.109 74.707 613.914 76.3477C618.758 77.9883 622.684 80.1953 625.691 82.9688C631.316 88.2031 634.129 95.2148 634.129 104.004C634.129 115.645 630.105 126.875 622.059 137.695C614.676 147.734 605.887 155.352 595.691 160.547C589.09 163.906 583.016 165.586 577.469 165.586C573.133 165.586 569.402 164.316 566.277 161.777C562.918 159.082 561.531 155.547 562.117 151.172ZM636.883 144.492C637.039 141.094 637.605 137.852 638.582 134.766C639.559 131.641 640.867 128.633 642.508 125.742C644.148 122.812 646.062 120.059 648.25 117.48C650.477 114.863 652.879 112.578 655.457 110.625C661.043 106.445 666.688 104.355 672.391 104.355C679.07 104.355 683.523 107.109 685.75 112.617C686.531 114.492 686.902 116.719 686.863 119.297C686.824 121.836 686.336 124.199 685.398 126.387C684.461 128.535 683.152 130.508 681.473 132.305C679.832 134.062 677.859 135.645 675.555 137.051C673.289 138.457 670.809 139.648 668.113 140.625C662.566 142.578 656.629 143.594 650.301 143.672C650.145 144.219 650.047 145.039 650.008 146.133C649.969 147.227 650.086 148.457 650.359 149.824C650.633 151.152 651.102 152.344 651.766 153.398C653.172 155.742 655.203 156.914 657.859 156.914C662.391 156.914 666.805 155.586 671.102 152.93C672.625 152.031 673.855 151.113 674.793 150.176C675.77 149.199 676.609 148.711 677.312 148.711C678.016 148.711 678.621 149.141 679.129 150C679.676 150.82 679.949 151.758 679.949 152.812C679.949 154.883 679.363 156.68 678.191 158.203C673.27 163.125 665.945 165.586 656.219 165.586C650.477 165.586 645.867 163.867 642.391 160.43C638.484 156.523 636.648 151.211 636.883 144.492ZM671.102 112.148C667 112.148 663.055 114.961 659.266 120.586C656.062 125.43 653.484 131.172 651.531 137.812C658.055 137.148 663.719 134.57 668.523 130.078C672.938 125.859 675.145 121.816 675.145 117.949C675.145 114.082 673.797 112.148 671.102 112.148ZM693.484 144.492C693.641 141.094 694.207 137.852 695.184 134.766C696.16 131.641 697.469 128.633 699.109 125.742C700.75 122.812 702.664 120.059 704.852 117.48C707.078 114.863 709.48 112.578 712.059 110.625C717.645 106.445 723.289 104.355 728.992 104.355C735.672 104.355 740.125 107.109 742.352 112.617C743.133 114.492 743.504 116.719 743.465 119.297C743.426 121.836 742.938 124.199 742 126.387C741.062 128.535 739.754 130.508 738.074 132.305C736.434 134.062 734.461 135.645 732.156 137.051C729.891 138.457 727.41 139.648 724.715 140.625C719.168 142.578 713.23 143.594 706.902 143.672C706.746 144.219 706.648 145.039 706.609 146.133C706.57 147.227 706.688 148.457 706.961 149.824C707.234 151.152 707.703 152.344 708.367 153.398C709.773 155.742 711.805 156.914 714.461 156.914C718.992 156.914 723.406 155.586 727.703 152.93C729.227 152.031 730.457 151.113 731.395 150.176C732.371 149.199 733.211 148.711 733.914 148.711C734.617 148.711 735.223 149.141 735.73 150C736.277 150.82 736.551 151.758 736.551 152.812C736.551 154.883 735.965 156.68 734.793 158.203C729.871 163.125 722.547 165.586 712.82 165.586C707.078 165.586 702.469 163.867 698.992 160.43C695.086 156.523 693.25 151.211 693.484 144.492ZM727.703 112.148C723.602 112.148 719.656 114.961 715.867 120.586C712.664 125.43 710.086 131.172 708.133 137.812C714.656 137.148 720.32 134.57 725.125 130.078C729.539 125.859 731.746 121.816 731.746 117.949C731.746 114.082 730.398 112.148 727.703 112.148ZM759.988 159.434C759.91 160.02 759.051 163.105 757.41 168.691C755.809 174.277 754.461 178.711 753.367 181.992C750.906 189.336 748.875 193.906 747.273 195.703C745.984 197.109 744.422 197.812 742.586 197.812C740.359 197.812 738.66 196.719 737.488 194.531C737.137 193.906 736.961 193.203 736.961 192.422C736.961 191.68 737.547 190.039 738.719 187.5C741.805 181.055 745.926 168.359 751.082 149.414C753.152 141.914 754.52 136.816 755.184 134.121L757.059 126.797C758.27 121.953 758.973 118.672 759.168 116.953C759.402 115.195 759.305 113.965 758.875 113.262C758.445 112.52 757.957 111.973 757.41 111.621C756.863 111.23 756.355 110.898 755.887 110.625C755.418 110.352 755.223 109.863 755.301 109.16C755.379 108.418 755.691 107.754 756.238 107.168C756.824 106.543 757.547 106.016 758.406 105.586C760.164 104.766 761.922 104.355 763.68 104.355C765.477 104.355 766.883 104.57 767.898 105C768.914 105.43 769.754 106.016 770.418 106.758C771.824 108.281 772.449 109.766 772.293 111.211C771.902 114.219 771.473 116.797 771.004 118.945C777.84 109.219 784.93 104.355 792.273 104.355C798.953 104.355 803.426 107.812 805.691 114.727C806.473 117.148 806.863 120.098 806.863 123.574C806.863 127.051 806.336 130.547 805.281 134.062C804.227 137.539 802.801 140.84 801.004 143.965C799.207 147.09 797.117 149.98 794.734 152.637C792.352 155.254 789.832 157.539 787.176 159.492C781.551 163.555 776.238 165.586 771.238 165.586C766.238 165.586 762.488 163.535 759.988 159.434ZM769.012 134.473C767.605 137.207 766.453 139.941 765.555 142.676C764.695 145.41 764.266 147.91 764.266 150.176C764.266 152.441 764.754 154.316 765.73 155.801C766.707 157.246 768.152 157.969 770.066 157.969C771.98 157.969 773.875 157.461 775.75 156.445C777.664 155.391 779.5 153.984 781.258 152.227C783.055 150.469 784.715 148.418 786.238 146.074C787.801 143.691 789.148 141.172 790.281 138.516C792.742 132.734 793.973 127.246 793.973 122.051C793.973 119.238 793.602 117.051 792.859 115.488C792.117 113.926 790.965 113.145 789.402 113.145C787.879 113.145 786.277 113.75 784.598 114.961C782.918 116.133 781.16 117.715 779.324 119.707C777.488 121.66 775.672 123.926 773.875 126.504C772.078 129.043 770.457 131.699 769.012 134.473ZM818.465 162.656C817.488 161.641 816.688 160.352 816.062 158.789C815.477 157.188 815.184 155.352 815.184 153.281C815.184 151.172 815.652 148.359 816.59 144.844C817.566 141.328 818.797 137.324 820.281 132.832L825.203 118.242C832.195 97.9297 836.238 82.2266 837.332 71.1328C837.684 67.8516 839.285 66.2109 842.137 66.2109C843.934 66.2109 845.418 66.6406 846.59 67.5C848.855 69.2188 849.949 71.1328 849.871 73.2422C849.793 75.3516 849.422 77.9297 848.758 80.9766C848.094 83.9844 847.234 87.2852 846.18 90.8789C845.125 94.4336 843.914 98.2031 842.547 102.188L834.461 125.977C829.812 139.492 827.488 148.223 827.488 152.168C827.488 154.277 828.348 155.332 830.066 155.332C831.707 155.332 833.191 154.98 834.52 154.277C835.887 153.574 836.766 153.223 837.156 153.223C837.977 153.223 838.387 153.633 838.387 154.453C838.387 157.93 836.609 160.84 833.055 163.184C830.672 164.785 828.484 165.586 826.492 165.586C824.539 165.586 822.957 165.352 821.746 164.883C820.535 164.414 819.441 163.672 818.465 162.656ZM849.695 144.492C849.852 141.094 850.418 137.852 851.395 134.766C852.371 131.641 853.68 128.633 855.32 125.742C856.961 122.812 858.875 120.059 861.062 117.48C863.289 114.863 865.691 112.578 868.27 110.625C873.855 106.445 879.5 104.355 885.203 104.355C891.883 104.355 896.336 107.109 898.562 112.617C899.344 114.492 899.715 116.719 899.676 119.297C899.637 121.836 899.148 124.199 898.211 126.387C897.273 128.535 895.965 130.508 894.285 132.305C892.645 134.062 890.672 135.645 888.367 137.051C886.102 138.457 883.621 139.648 880.926 140.625C875.379 142.578 869.441 143.594 863.113 143.672C862.957 144.219 862.859 145.039 862.82 146.133C862.781 147.227 862.898 148.457 863.172 149.824C863.445 151.152 863.914 152.344 864.578 153.398C865.984 155.742 868.016 156.914 870.672 156.914C875.203 156.914 879.617 155.586 883.914 152.93C885.438 152.031 886.668 151.113 887.605 150.176C888.582 149.199 889.422 148.711 890.125 148.711C890.828 148.711 891.434 149.141 891.941 150C892.488 150.82 892.762 151.758 892.762 152.812C892.762 154.883 892.176 156.68 891.004 158.203C886.082 163.125 878.758 165.586 869.031 165.586C863.289 165.586 858.68 163.867 855.203 160.43C851.297 156.523 849.461 151.211 849.695 144.492ZM883.914 112.148C879.812 112.148 875.867 114.961 872.078 120.586C868.875 125.43 866.297 131.172 864.344 137.812C870.867 137.148 876.531 134.57 881.336 130.078C885.75 125.859 887.957 121.816 887.957 117.949C887.957 114.082 886.609 112.148 883.914 112.148ZM908.23 163.711C906.551 164.922 905.242 165.527 904.305 165.527C903.406 165.527 902.645 165.391 902.02 165.117C901.434 164.883 900.887 164.57 900.379 164.18C899.207 163.203 898.621 162.324 898.621 161.543C898.621 160.723 899.051 159.98 899.91 159.316C899.91 159.316 901.102 158.359 903.484 156.445C909.891 151.172 915.184 145.449 919.363 139.277C915.965 129.746 914.402 121.816 914.676 115.488C914.832 112.363 916.18 109.668 918.719 107.402C921.062 105.371 923.562 104.355 926.219 104.355C927 104.355 927.508 104.629 927.742 105.176C927.977 105.723 928.094 106.523 928.094 107.578C928.094 108.594 928.055 109.688 927.977 110.859C927.898 111.992 927.879 113.203 927.918 114.492C927.996 115.742 928.094 117.109 928.211 118.594C928.602 122.578 928.973 125.684 929.324 127.91L931.258 124.688C935.711 117.617 940.906 112.012 946.844 107.871C950.203 105.527 953.094 104.355 955.516 104.355C957.703 104.355 959.402 104.668 960.613 105.293C962.879 106.465 963.641 107.656 962.898 108.867C962.781 109.062 962.547 109.219 962.195 109.336L960.73 110.039C954.559 112.734 946.688 119.336 937.117 129.844C935.125 132.031 933.387 134.121 931.902 136.113L933.953 142.969C936.492 151.172 939.5 155.273 942.977 155.273C944.5 155.273 945.75 155.039 946.727 154.57L948.836 153.633C949.266 153.438 949.676 153.34 950.066 153.34C950.887 153.34 951.297 153.75 951.297 154.57C951.297 158.008 949.539 160.898 946.023 163.242C943.68 164.805 941.023 165.586 938.055 165.586C932.312 165.586 927.117 159.668 922.469 147.832C917.547 155.059 912.801 160.352 908.23 163.711Z" fill="#0C76BC"/>
</g>
<defs>
<filter id="filter0_i_2_20" x="561.238" y="66.2109" width="402.773" height="135.602" filterUnits="userSpaceOnUse" color-interpolation-filters="sRGB">
<feFlood flood-opacity="0" result="BackgroundImageFix"/>
<feBlend mode="normal" in="SourceGraphic" in2="BackgroundImageFix" result="shape"/>
<feColorMatrix in="SourceAlpha" type="matrix" values="0 0 0 0 0 0 0 0 0 0 0 0 0 0 0 0 0 0 127 0" result="hardAlpha"/>
<feOffset dy="4"/>
<feGaussianBlur stdDeviation="2"/>
<feComposite in2="hardAlpha" operator="arithmetic" k2="-1" k3="1"/>
<feColorMatrix type="matrix" values="0 0 0 0 0 0 0 0 0 0 0 0 0 0 0 0 0 0 0.25 0"/>
<feBlend mode="normal" in2="shape" result="effect1_innerShadow_2_20"/>
</filter>
<linearGradient id="paint0_linear_2_20" x1="282" y1="120.151" x2="514" y2="104.198" gradientUnits="userSpaceOnUse">
<stop stop-color="#EE9E62"/>
<stop offset="0.234375" stop-color="#F66C73"/>
<stop offset="0.453125" stop-color="#D52F90"/>
<stop offset="0.697917" stop-color="#8A5292"/>
<stop offset="1" stop-color="#0782CE"/>
</linearGradient>
</defs>
</svg>
